
<svg  xmlns="http://www.w3.org/2000/svg"
 width="24" height="24" viewBox="0 0 96 96"
  fill="currentColor" stroke="currentColor" stroke-width="10">

<g transform="translate(0.000000,96) scale(0.100000,-0.100000)"
>
<path d="M399 916 c-347 -96 -454 -525 -191 -766 92 -85 188 -119 335 -120
l87 0 0 29 0 28 -108 5 c-95 4 -116 8 -175 35 -84 40 -150 106 -190 191 -29
61 -32 76 -32 162 0 88 3 101 33 162 42 86 110 153 191 192 56 26 79 30 173
34 l108 5 0 28 0 29 -92 -1 c-51 0 -114 -6 -139 -13z" />
<path d="M735 888 c-69 -79 -95 -177 -60 -224 12 -16 14 -68 15 -297 l0 -279
29 -29 c37 -36 79 -38 118 -5 l28 24 3 279 c2 219 6 285 17 310 20 42 18 89
-4 139 -19 42 -86 124 -101 124 -5 0 -25 -19 -45 -42z m82 -94 c27 -46 29 -81
7 -112 -19 -28 -58 -28 -85 -1 -27 27 -22 83 11 129 27 38 38 35 67 -16z m-9
-440 c-3 -224 -5 -248 -21 -258 -14 -8 -20 -8 -27 4 -6 8 -10 121 -10 258 l0
242 30 0 30 0 -2 -246z"/>
<path d="M449 781 c-20 -20 -29 -39 -29 -61 0 -43 47 -90 90 -90 43 0 90 47
90 90 0 22 -9 41 -29 61 -40 39 -82 39 -122 0z m86 -51 c8 -25 -1 -40 -25 -40
-23 0 -38 39 -19 51 22 14 37 10 44 -11z"/>
<path d="M239 661 c-39 -40 -39 -82 0 -122 40 -39 82 -39 122 0 20 20 29 39
29 61 0 43 -47 90 -90 90 -22 0 -41 -9 -61 -29z m86 -51 c8 -25 -1 -40 -25
-40 -23 0 -38 39 -19 51 22 14 37 10 44 -11z"/>
<path d="M239 421 c-39 -40 -39 -82 0 -122 20 -20 39 -29 61 -29 43 0 90 47
90 90 0 43 -47 90 -90 90 -22 0 -41 -9 -61 -29z m86 -51 c8 -25 -1 -40 -25
-40 -23 0 -38 39 -19 51 22 14 37 10 44 -11z"/>
<path d="M449 301 c-20 -20 -29 -39 -29 -61 0 -43 47 -90 90 -90 43 0 90 47
90 90 0 43 -47 90 -90 90 -22 0 -41 -9 -61 -29z m86 -51 c8 -25 -1 -40 -25
-40 -23 0 -38 39 -19 51 22 14 37 10 44 -11z"/>
</g>
</svg>
