<svg width="24" height="24" viewBox="0 0 24 24" fill="none" xmlns="http://www.w3.org/2000/svg">
<path d="M6.15385 9L7.93477 20.576C7.9723 20.8199 8.18217 21 8.42896 21H15.571C15.8178 21 16.0277 20.8199 16.0652 20.576L17.8462 9M14 11V15M7 9C5.89543 9 5 8.10457 5 7C5 5.89543 5.89543 5 7 5C7.36429 5 7.70583 5.09739 8 5.26756C8.15662 5.35817 8.37034 5.30705 8.45429 5.14676C9.12263 3.87069 10.4596 3 12 3C13.165 3 14.2137 3.49804 14.9447 4.29283C15.4167 4.80591 16.3029 5 17 5C18.1046 5 19 5.89543 19 7C19 8.10457 18.1046 9 17 9C16.3029 9 15.4167 9.19409 14.9447 9.70717C14.2137 10.502 13.165 11 12 11C10.835 11 9.78633 10.502 9.05528 9.70717C8.58334 9.19409 7.69711 9 7 9Z" stroke="currentColor" stroke-width="2" stroke-linecap="round"/>
</svg>
