<svg width="24" height="24" viewBox="0 0 24 24" fill="none" xmlns="http://www.w3.org/2000/svg">
<path d="M7 14H17M6.09703 8.5822L7.72147 18.3288C7.8822 19.2932 8.71658 20 9.69425 20H14.3057C15.2834 20 16.1178 19.2932 16.2785 18.3288L17.903 8.5822C17.9538 8.27743 17.7187 8 17.4098 8H6.59023C6.28126 8 6.04624 8.27743 6.09703 8.5822ZM5 7.5V6C5 4.89543 5.89543 4 7 4H17C18.1046 4 19 4.89543 19 6V7.5C19 7.77614 18.7761 8 18.5 8H5.5C5.22386 8 5 7.77614 5 7.5Z" stroke="currentColor" stroke-width="2" stroke-linecap="round"/>
</svg>
