<svg width="24" height="24" viewBox="0 0 24 24" fill="none" xmlns="http://www.w3.org/2000/svg">
<path d="M12 10C12 12.2091 10.2091 14 8 14M12 10C12 7.79086 10.2091 6 8 6M12 10C12 12.2091 13.7909 14 16 14M12 10C12 7.79086 13.7909 6 16 6M8 14C5.79086 14 4 12.2091 4 10C4 7.79086 5.79086 6 8 6M8 14L11.5528 21.1056C11.737 21.4741 12.263 21.4741 12.4472 21.1056L16 14M8 6C8 3.79086 9.79086 2 12 2C14.2091 2 16 3.79086 16 6M16 6C18.2091 6 20 7.79086 20 10C20 12.2091 18.2091 14 16 14" 
stroke="currentColor" stroke-width="2" stroke-linecap="round"/>
</svg>
