<svg width="24" height="24" viewBox="0 0 24 24" fill="none" xmlns="http://www.w3.org/2000/svg">
<path d="M9 20.3967C8.54524 20.3967 8.09048 20.2422 7.71963 19.9331L3.71963 16.5998C3.26365 16.2198 3 15.6569 3 15.0633V5.13514C3 4.2873 3.98886 3.82415 4.64018 4.36692L7.71963 6.93313C8.46132 7.5512 9.53868 7.5512 10.2804 6.93313L13.7196 4.06707C14.4613 3.449 15.5387 3.449 16.2804 4.06707L19.5607 6.80071C20.0167 7.1807 20.2804 7.7436 20.2804 8.33716V10M9 8.0001V20.0001M13.5414 15.0458L15.5279 21.0005C15.8812 22.0596 17.3668 22.0938 17.7672 21.0521L18.4896 19.1726C18.6103 18.8584 18.8585 18.6102 19.1727 18.4894L21.0522 17.767C22.094 17.3666 22.0598 15.8811 21.0007 15.5278L15.0459 13.5413C14.1157 13.2309 13.231 14.1156 13.5414 15.0458Z" stroke="currentColor" stroke-width="2" stroke-linecap="round"/>
</svg>
