<svg width="24" height="24" viewBox="0 0 24 24" fill="none" xmlns="http://www.w3.org/2000/svg">
<path d="M5.18404 20.564L5.63803 19.673H5.63803L5.18404 20.564ZM3.43597 18.816L2.54497 19.27L3.43597 18.816ZM20.564 18.816L19.673 18.362V18.362L20.564 18.816ZM18.816 20.564L19.27 21.455L18.816 20.564ZM7 21C7 21.5523 7.44772 22 8 22C8.55228 22 9 21.5523 9 21H7ZM15 21C15 21.5523 15.4477 22 16 22C16.5523 22 17 21.5523 17 21H15ZM9 8L8.01942 7.80388L8 7.90098V8H9ZM3.02439 8.38434L2.03247 8.51119L3.02439 8.38434ZM15 8H16V7.90098L15.9806 7.80388L15 8ZM20.9633 8.47033L19.9755 8.31479V8.31479L20.9633 8.47033ZM3.14305 7.64238L4.07152 8.01377H4.07152L3.14305 7.64238ZM4.49711 4.25722L5.42559 4.62861V4.62861L4.49711 4.25722ZM19.0528 4.10557L18.1584 4.55279V4.55279L19.0528 4.10557ZM20.7889 7.57771L21.6833 7.1305L21.6833 7.13049L20.7889 7.57771ZM20 8.0001V14.6H22V8.0001H20ZM14.6 20H9.4V22H14.6V20ZM4 14.6V8.0001H2V14.6H4ZM9.4 20C8.26339 20 7.47108 19.9992 6.85424 19.9488C6.24907 19.8994 5.90138 19.8072 5.63803 19.673L4.73005 21.455C5.32234 21.7568 5.96253 21.8826 6.69138 21.9422C7.40855 22.0008 8.2964 22 9.4 22V20ZM2 14.6C2 15.7036 1.99922 16.5914 2.05782 17.3086C2.11737 18.0375 2.24318 18.6777 2.54497 19.27L4.32698 18.362C4.19279 18.0986 4.10062 17.7509 4.05118 17.1458C4.00078 16.5289 4 15.7366 4 14.6H2ZM5.63803 19.673C5.07354 19.3854 4.6146 18.9265 4.32698 18.362L2.54497 19.27C3.02433 20.2108 3.78924 20.9757 4.73005 21.455L5.63803 19.673ZM20 14.6C20 15.7366 19.9992 16.5289 19.9488 17.1458C19.8994 17.7509 19.8072 18.0986 19.673 18.362L21.455 19.27C21.7568 18.6777 21.8826 18.0375 21.9422 17.3086C22.0008 16.5915 22 15.7036 22 14.6H20ZM14.6 22C15.7036 22 16.5914 22.0008 17.3086 21.9422C18.0375 21.8826 18.6777 21.7568 19.27 21.455L18.362 19.673C18.0986 19.8072 17.7509 19.8994 17.1458 19.9488C16.5289 19.9992 15.7366 20 14.6 20V22ZM19.673 18.362C19.3854 18.9265 18.9265 19.3854 18.362 19.673L19.27 21.455C20.2108 20.9757 20.9757 20.2108 21.455 19.27L19.673 18.362ZM9 21V17H7V21H9ZM10 16H14V14H10V16ZM15 17V21H17V17H15ZM14 16C14.5523 16 15 16.4477 15 17H17C17 15.3431 15.6569 14 14 14V16ZM9 17C9 16.4477 9.44772 16 10 16V14C8.34315 14 7 15.3431 7 17H9ZM8 8C8 9.10457 7.10457 10 6 10V12C8.20914 12 10 10.2091 10 8H8ZM6 10C4.98302 10 4.14196 9.24004 4.01631 8.25749L2.03247 8.51119C2.28416 10.4793 3.96371 12 6 12V10ZM14 8C14 9.10457 13.1046 10 12 10V12C14.2091 12 16 10.2091 16 8H14ZM12 10C10.8954 10 10 9.10457 10 8H8C8 10.2091 9.79086 12 12 12V10ZM19.9755 8.31479C19.8252 9.26957 18.997 10 18 10V12C19.9967 12 21.6501 10.5379 21.9512 8.62587L19.9755 8.31479ZM18 10C16.8954 10 16 9.10457 16 8H14C14 10.2091 15.7909 12 18 12V10ZM4.07152 8.01377L5.42559 4.62861L3.56864 3.88583L2.21457 7.27099L4.07152 8.01377ZM18.1584 4.55279L19.8944 8.02492L21.6833 7.13049L19.9472 3.65836L18.1584 4.55279ZM6.35407 4H10V2H6.35407V4ZM9.98058 8.19612L10.9806 3.19612L9.01942 2.80388L8.01942 7.80388L9.98058 8.19612ZM10 4H14V2H10V4ZM14 4H17.2639V2H14V4ZM15.9806 7.80388L14.9806 2.80388L13.0194 3.19612L14.0194 8.19612L15.9806 7.80388ZM19.9472 3.65836C19.439 2.64201 18.4002 2 17.2639 2V4C17.6427 4 17.989 4.214 18.1584 4.55279L19.9472 3.65836ZM21.9512 8.62587C22.0434 8.04025 21.8755 7.51499 21.6833 7.1305L19.8944 8.02492C19.9799 8.19585 19.9799 8.28699 19.9755 8.31479L21.9512 8.62587ZM5.42559 4.62861C5.57745 4.24895 5.94516 4 6.35407 4V2C5.12735 2 4.02423 2.74685 3.56864 3.88583L5.42559 4.62861ZM4.01631 8.25749C4.01315 8.2328 4.01371 8.1583 4.07152 8.01377L2.21457 7.27099C2.08339 7.59895 1.97107 8.03112 2.03247 8.51119L4.01631 8.25749Z" 
fill="currentColor" />
</svg>
