<svg width="24" height="24" viewBox="0 0 24 24" fill="none" xmlns="http://www.w3.org/2000/svg">
<path d="M12 17V21M10 21H14M11.6606 15.9352C10.7546 16.6035 9.62494 17 8.4 17C5.41766 17 3 14.6495 3 11.75C3 9.75046 4.14976 8.01201 5.84159 7.12547C6.43342 6.81534 6.92719 6.32747 7.2535 5.7444C8.16846 4.10956 9.95095 3 12 3C14.049 3 15.8315 4.10956 16.7465 5.7444C17.0728 6.32747 17.5666 6.81534 18.1584 7.12547C19.8502 8.01201 21 9.75047 21 11.75C21 14.6495 18.5823 17 15.6 17C14.3751 17 13.2454 16.6035 12.3394 15.9352C12.1386 15.7872 11.8614 15.7872 11.6606 15.9352Z" 
stroke="currentColor    " stroke-width="2" stroke-linecap="round"/>
</svg>
