<svg width="400" height="75" viewBox="0 0 401 75" fill="none" xmlns="http://www.w3.org/2000/svg">
<g filter="url(#filter0_b_80436_116)">
<path d="M1.42925 3.72799H17.4613L63.3493 74H47.0293L1.42925 3.72799ZM0.46925 74L25.2373 34.928L31.2853 47.6L16.1173 74H0.46925ZM32.0533 30.224L47.2213 3.72799H62.5813L38.5813 41.072L32.0533 30.224ZM95.8895 3.72799C104.338 3.72799 110.834 5.80799 115.378 9.96799C119.922 14.128 122.194 19.76 122.194 26.864C122.194 29.68 121.778 32.528 120.946 35.408C120.114 38.224 118.738 40.784 116.818 43.088C114.962 45.392 112.466 47.248 109.33 48.656C106.258 50.064 102.482 50.768 98.0015 50.768H87.9215V74H75.3455V3.72799H95.8895ZM97.9055 38.48C100.21 38.48 102.098 38.096 103.57 37.328C105.106 36.56 106.29 35.568 107.122 34.352C108.018 33.136 108.658 31.888 109.042 30.608C109.426 29.328 109.618 28.176 109.618 27.152C109.618 26.256 109.458 25.2 109.138 23.984C108.882 22.704 108.338 21.456 107.506 20.24C106.738 18.96 105.586 17.936 104.05 17.168C102.578 16.336 100.594 15.92 98.0975 15.92H87.9215V38.48H97.9055ZM135.346 3.72799H147.922V61.808H181.714V74H135.346V3.72799ZM190.369 38.864C190.369 34.064 191.265 29.488 193.057 25.136C194.913 20.784 197.473 16.944 200.737 13.616C204.065 10.288 207.873 7.696 212.161 5.84C216.513 3.92 221.153 2.96 226.081 2.96C231.009 2.96 235.649 3.92 240.001 5.84C244.353 7.696 248.193 10.288 251.521 13.616C254.849 16.944 257.441 20.784 259.297 25.136C261.217 29.488 262.177 34.096 262.177 38.96C262.177 43.888 261.217 48.528 259.297 52.88C257.441 57.168 254.849 60.976 251.521 64.304C248.193 67.568 244.353 70.128 240.001 71.984C235.649 73.84 231.009 74.768 226.081 74.768C221.217 74.768 216.609 73.84 212.257 71.984C207.905 70.128 204.065 67.568 200.737 64.304C197.473 61.04 194.913 57.264 193.057 52.976C191.265 48.624 190.369 43.92 190.369 38.864ZM203.425 38.96C203.425 43.312 204.449 47.28 206.497 50.864C208.545 54.448 211.297 57.296 214.753 59.408C218.273 61.52 222.209 62.576 226.561 62.576C230.785 62.576 234.593 61.52 237.985 59.408C241.441 57.296 244.161 54.448 246.145 50.864C248.129 47.28 249.121 43.312 249.121 38.96C249.121 34.48 248.097 30.448 246.049 26.864C244.001 23.28 241.249 20.432 237.793 18.32C234.401 16.208 230.561 15.152 226.273 15.152C221.921 15.152 218.017 16.208 214.561 18.32C211.169 20.432 208.449 23.28 206.401 26.864C204.417 30.448 203.425 34.48 203.425 38.96ZM297.077 3.72799C302.645 3.72799 307.413 4.656 311.381 6.512C315.413 8.368 318.485 11.024 320.597 14.48C322.773 17.936 323.861 22.064 323.861 26.864C323.861 29.68 323.413 32.496 322.517 35.312C321.685 38.128 320.309 40.688 318.389 42.992C316.533 45.296 314.005 47.152 310.805 48.56C307.669 49.968 303.797 50.672 299.189 50.672H289.109V74H276.533V3.72799H297.077ZM299.093 38.48C302.165 38.48 304.533 37.872 306.197 36.656C307.925 35.376 309.109 33.872 309.749 32.144C310.453 30.416 310.805 28.816 310.805 27.344C310.805 26.384 310.645 25.264 310.325 23.984C310.069 22.704 309.525 21.456 308.693 20.24C307.925 18.96 306.773 17.936 305.237 17.168C303.701 16.336 301.717 15.92 299.285 15.92H289.109V38.48H299.093ZM311.669 46.256L329.333 74H314.645L296.597 46.544L311.669 46.256ZM333.913 74L365.401 0.847998H366.073L397.561 74H382.969L361.945 20.624L371.065 14.48L346.393 74H333.913ZM354.649 48.272H377.113L381.529 58.928H350.809L354.649 48.272Z" fill="#FCE35C"/>
</g>
<defs>
<filter id="filter0_b_80436_116" x="-3.53076" y="-3.15201" width="405.092" height="81.92" filterUnits="userSpaceOnUse" color-interpolation-filters="sRGB">
<feFlood flood-opacity="0" result="BackgroundImageFix"/>
<feGaussianBlur in="BackgroundImageFix" stdDeviation="2"/>
<feComposite in2="SourceAlpha" operator="in" result="effect1_backgroundBlur_80436_116"/>
<feBlend mode="normal" in="SourceGraphic" in2="effect1_backgroundBlur_80436_116" result="shape"/>
</filter>
</defs>
</svg>
